<?xml version="1.0" encoding="utf-8"?>
<!-- Generator: Adobe Illustrator 16.0.0, SVG Export Plug-In . SVG Version: 6.00 Build 0)  -->
<!DOCTYPE svg PUBLIC "-//W3C//DTD SVG 1.1//EN" "http://www.w3.org/Graphics/SVG/1.1/DTD/svg11.dtd">
<svg version="1.1" id="Layer_1" xmlns="http://www.w3.org/2000/svg" xmlns:xlink="http://www.w3.org/1999/xlink" x="0px" y="0px"
	 width="1280px" height="800px" viewBox="0 0 1280 800" enable-background="new 0 0 1280 800" xml:space="preserve">
<g>
	<path fill="#DA1F47" d="M69,345c0,0,0.693-1.058,2.144-3.033c1.448-1.976,3.655-4.869,6.706-8.507
		c3.05-3.638,6.956-8.012,11.841-12.881c4.88-4.87,10.776-10.206,17.851-15.617c7.073-5.399,15.34-10.884,24.992-15.721
		c9.633-4.843,20.747-8.881,33.103-11.177c12.345-2.227,25.972-2.581,39.912-0.053c6.964,1.253,13.99,3.168,20.96,5.718
		c6.973,2.548,13.86,5.777,20.636,9.501c13.384,7.339,26.935,15.782,40.444,25.185c13.496,9.435,26.973,19.819,40.525,30.778
		c13.57,10.939,27.212,22.474,41.389,33.808c14.168,11.312,28.859,22.563,44.916,31.82c8.02,4.62,16.377,8.722,25.088,11.937
		c8.708,3.209,17.771,5.385,27.031,6.516c4.63,0.568,9.305,0.727,13.998,0.727h1.76l1.731,0.063
		c1.225-0.041,2.484-0.007,3.586-0.108c2.251-0.132,4.614-0.357,6.964-0.631c4.699-0.584,9.404-1.451,14.099-2.494
		c4.696-1.039,9.379-2.281,14.038-3.688c18.651-5.625,36.945-13.422,54.881-22.124c17.944-8.724,35.557-18.416,52.915-28.574
		c34.768-20.271,68.459-42.46,101.684-64.396c8.319-5.475,16.614-10.93,24.985-16.258c4.198-2.668,8.372-5.279,12.695-7.861
		c2.114-1.243,4.226-2.485,6.334-3.725c2.148-1.226,4.293-2.449,6.436-3.672c17.127-9.655,34.505-18.416,51.986-26.161
		c8.736-3.882,17.502-7.503,26.274-10.852c8.773-3.343,17.52-6.51,26.271-9.339c17.502-5.657,34.87-10.394,51.936-14.23
		c17.061-3.863,33.796-6.941,50.063-9.295c16.27-2.332,32.054-4.026,47.229-5.244c3.795-0.298,7.547-0.612,11.266-0.828
		c1.858-0.119,3.707-0.237,5.544-0.355c0.929-0.059,1.854-0.116,2.776-0.175c0.912-0.044,1.82-0.088,2.727-0.131
		c7.249-0.339,14.33-0.67,21.234-0.993c6.934-0.177,13.688-0.35,20.254-0.518c6.562-0.043,12.935-0.085,19.109-0.125
		c24.701,0.043,46.225,1.193,63.875,2.847c17.659,1.604,31.419,3.918,40.709,5.842c9.298,1.922,14.105,3.526,14.105,3.526
		s-4.87-1.405-14.216-2.939c-9.336-1.567-23.139-3.198-40.767-4.245c-17.628-1.051-39.08-1.413-63.66-0.818
		c-6.143,0.214-12.482,0.434-19.009,0.66c-6.514,0.351-13.214,0.71-20.091,1.08c-6.894,0.487-13.964,0.988-21.202,1.501
		c-0.904,0.063-1.812,0.127-2.722,0.191c-0.896,0.078-1.796,0.156-2.697,0.234c-1.822,0.16-3.653,0.321-5.495,0.482
		c-3.686,0.301-7.401,0.702-11.159,1.086c-15.023,1.563-30.622,3.612-46.661,6.3c-16.048,2.631-32.534,5.934-49.298,10.038
		c-16.771,4.07-33.8,9.029-50.92,14.887c-17.124,5.843-34.355,12.573-51.444,20.389c-17.1,7.787-34.087,16.57-50.849,26.247
		c-2.081,1.217-4.166,2.435-6.254,3.654c-2.102,1.251-4.207,2.503-6.314,3.757c-4.092,2.461-8.253,5.077-12.37,7.711
		c-8.255,5.286-16.507,10.748-24.798,16.237c-33.146,22.004-66.942,44.46-102.026,64.979
		c-17.567,10.213-35.433,19.984-53.742,28.823c-18.31,8.814-37.062,16.772-56.554,22.596c-4.871,1.455-9.794,2.756-14.776,3.844
		c-4.98,1.092-10.006,2.021-15.097,2.64c-2.55,0.289-5.084,0.56-7.745,0.708c-1.351,0.108-2.548,0.128-3.777,0.166l-1.95,0.049
		l-1.92-0.018c-5.117-0.046-10.222-0.404-15.267-1.075c-10.095-1.332-19.926-3.937-29.243-7.475
		c-9.322-3.545-18.137-7.99-26.488-12.909c-8.357-4.921-16.26-10.321-23.845-15.916c-7.589-5.595-14.87-11.378-21.953-17.203
		c-14.137-11.684-27.571-23.422-40.88-34.509c-26.534-22.247-52.758-41.749-78.869-56.783c-6.43-3.726-12.951-6.968-19.557-9.555
		c-6.603-2.589-13.261-4.563-19.869-5.917c-13.213-2.798-26.226-2.848-38.164-1.056c-11.952,1.849-22.832,5.478-32.396,9.873
		c-9.587,4.387-17.908,9.486-25.073,14.567c-14.306,10.247-24.173,20.137-30.565,27.087c-3.193,3.492-5.518,6.284-7.047,8.194
		C69.738,343.973,69,345,69,345z"/>
</g>
<g>
	<circle opacity="0.3" fill="#DA1F47" cx="482.5" cy="439.5" r="17.5"/>
	<circle opacity="0.5" fill="#DA1F47" cx="482.5" cy="439.5" r="8.5"/>
	<circle cx="482.5" cy="439.5" r="2.75"/>
</g>
<g>
	<circle opacity="0.3" fill="#DA1F47" cx="772.5" cy="292.5" r="17.5"/>
	<circle opacity="0.5" fill="#DA1F47" cx="772.5" cy="292.5" r="8.5"/>
	<circle cx="772.5" cy="292.5" r="2.75"/>
</g>
<g>
	<circle opacity="0.3" fill="#DA1F47" cx="659.5" cy="365.5" r="17.5"/>
	<circle opacity="0.5" fill="#DA1F47" cx="659.5" cy="365.5" r="8.5"/>
	<circle cx="659.5" cy="365.5" r="2.75"/>
</g>
<g opacity="0.2">
	<path fill="#21B1D8" d="M201,230.25c0,0,0.232-0.114,0.689-0.338c0.462-0.215,1.129-0.58,2.05-0.979
		c1.832-0.829,4.599-1.947,8.281-3.21c3.685-1.254,8.279-2.662,13.744-4.069c5.465-1.403,11.784-2.869,18.895-4.34
		c7.108-1.489,15.019-2.919,23.649-4.35c4.316-0.714,8.814-1.424,13.487-2.121c4.664-0.671,9.537-1.438,14.559-1.954
		c20.081-2.215,42.753-4.4,67.556-6.237c24.806-1.8,51.723-3.37,80.388-3.021c7.171,0.128,14.447,0.342,21.851,0.937
		c7.385,0.61,14.976,1.466,22.606,3.39c3.835,0.97,7.647,2.229,11.396,3.952c3.738,1.706,7.404,3.925,10.67,6.792
		c3.279,2.845,6.043,6.406,8.106,10.242c2.081,3.845,3.443,7.933,4.427,11.954c1.957,8.068,2.569,15.943,4.045,23.313
		c1.424,7.366,3.764,14.215,8.055,19.711c2.111,2.764,4.676,5.196,7.575,7.306c1.44,1.064,2.975,2.037,4.571,2.938l1.203,0.669
		c0.133,0.075-0.115-0.054,0.152,0.078l0.341,0.164l0.34,0.163l0.185,0.063l0.358,0.134l0.516,0.166
		c0.349,0.108,0.726,0.203,1.104,0.295c3.119,0.708,6.905,0.801,10.704,0.685c3.824-0.121,7.754-0.484,11.708-0.932
		c15.871-1.861,32.088-5.011,48.838-6.606c8.388-0.771,16.939-1.239,25.793-0.364c2.214,0.233,4.446,0.562,6.694,1.038
		c1.123,0.235,2.251,0.508,3.38,0.837c0.563,0.152,1.128,0.332,1.692,0.521l0.905,0.305l0.727,0.27
		c0.98,0.369,1.914,0.695,2.933,1.102l3.082,1.254l2.989,1.324l2.958,1.428c7.829,3.915,15.331,9.114,21.44,15.885
		c3.023,3.396,5.708,7.134,7.854,11.135c2.186,3.983,3.843,8.195,5.134,12.437c2.557,8.515,3.54,17.106,4.194,25.426
		c0.635,8.331,0.91,16.466,1.675,24.354c0.754,7.879,2.021,15.522,4.423,22.616c1.187,3.551,2.669,6.951,4.469,10.154
		c0.431,0.813,0.927,1.584,1.397,2.37c0.229,0.397,0.5,0.768,0.748,1.152l0.72,1.08l1.752,2.435l0.875,1.209l0.864,1.114
		l1.725,2.229l1.834,2.214c1.196,1.496,2.521,2.885,3.77,4.331c2.614,2.793,5.257,5.552,8.07,8.125
		c5.555,5.222,11.534,9.937,17.702,14.292c6.18,4.346,12.613,8.25,19.15,11.84c6.562,3.548,13.222,6.8,19.946,9.742
		c13.466,5.857,27.139,10.534,40.678,14.311c13.537,3.803,26.959,6.635,40.019,8.916c6.534,1.12,12.986,2.072,19.336,2.835
		c3.174,0.38,6.323,0.721,9.438,0.999c1.556,0.139,3.109,0.267,4.632,0.366l0.554,0.035l0.46,0.006l1.171,0.016
		c0.779,0.01,1.557,0.021,2.332,0.03c24.815,0.289,47.563,0.705,67.727,1.037c20.162,0.307,37.74,0.705,52.216,0.987
		c14.476,0.268,25.85,0.606,33.604,0.776c7.755,0.188,11.891,0.289,11.891,0.289s-4.136,0.101-11.891,0.289
		c-7.755,0.17-19.129,0.509-33.604,0.776c-14.476,0.282-32.054,0.681-52.216,0.987c-20.163,0.332-42.911,0.748-67.727,1.037
		c-0.775,0.01-1.553,0.021-2.332,0.03l-1.171,0.016l-0.714,0.004l-0.619-0.021c-1.607-0.062-3.197-0.148-4.798-0.248
		c-3.198-0.198-6.416-0.457-9.66-0.755c-6.487-0.601-13.074-1.389-19.755-2.346c-13.361-1.906-27.076-4.627-41-8.21
		c-13.92-3.59-28.047-8.105-42.082-13.884c-14.028-5.78-27.931-12.952-41.078-21.926c-6.553-4.51-12.944-9.427-18.938-14.924
		c-3.03-2.709-5.899-5.626-8.736-8.591c-1.364-1.535-2.798-3.013-4.108-4.607l-2.004-2.362l-1.965-2.478l-0.981-1.243l-0.896-1.208
		l-1.781-2.413c-0.063-0.081-0.248-0.346-0.279-0.395l-0.229-0.337l-0.459-0.674c-0.3-0.452-0.622-0.892-0.901-1.358
		c-0.572-0.925-1.166-1.838-1.689-2.793c-2.175-3.774-3.961-7.767-5.377-11.854c-2.868-8.187-4.216-16.674-5.058-24.981
		c-0.833-8.322-1.137-16.537-1.781-24.555c-0.65-8.004-1.628-15.854-3.853-23.14c-2.203-7.282-5.741-13.916-10.744-19.421
		c-5.004-5.499-11.317-9.918-18.277-13.365l-2.634-1.26l-2.687-1.179l-2.668-1.076c-0.901-0.358-1.922-0.713-2.877-1.069
		c-3.354-1.271-6.933-1.979-10.744-2.402c-7.608-0.799-15.637-0.446-23.644,0.262c-16.084,1.445-32.165,4.487-48.651,6.354
		c-4.138,0.447-8.309,0.819-12.591,0.936c-4.291,0.085-8.67-0.006-13.43-1.122c-0.599-0.152-1.199-0.314-1.81-0.514l-0.918-0.314
		c-0.321-0.116-0.701-0.279-1.046-0.424c-0.884-0.382-0.821-0.377-1.707-0.833l-1.427-0.813c-1.896-1.099-3.748-2.303-5.522-3.643
		c-3.558-2.65-6.835-5.816-9.528-9.429c-2.724-3.591-4.819-7.605-6.358-11.686c-1.557-4.086-2.543-8.233-3.3-12.282
		c-1.496-8.099-2.038-15.893-3.687-22.931c-1.578-7.056-4.505-13.136-9.427-17.495c-4.852-4.422-11.373-7.254-18.134-9.108
		c-6.819-1.88-13.956-2.77-21.088-3.468c-7.131-0.676-14.265-0.987-21.305-1.211c-14.094-0.411-27.87-0.233-41.192,0.124
		c-13.324,0.366-26.208,0.92-38.571,1.59c-24.727,1.347-47.389,3.086-67.43,4.902c-20.006,1.683-37.452,3.773-51.736,5.847
		c-14.29,2.081-25.43,4.294-32.916,6.246c-3.739,0.985-6.566,1.896-8.442,2.585c-0.945,0.329-1.639,0.646-2.115,0.826
		C201.24,230.153,201,230.25,201,230.25z"/>
</g>
<g opacity="0.2">
	<path fill="#21B1D8" d="M547,299.354l-38.726-0.879c-6.415-0.131-12.951-0.329-19.358-0.403l-19.283-0.228l-19.261-0.229
		c-6.411-0.094-12.842-0.119-19.257-0.146l-19.255-0.267L392.607,297h-0.118l-0.024,0.172L244.5,288.017l148.152,5.532l-0.143,0.02
		l19.246-0.865l19.247-0.807c6.415-0.275,12.831-0.549,19.254-0.757l19.266-0.676l19.272-0.678
		c6.425-0.228,13.061-0.329,19.479-0.501L547,288.354V299.354z"/>
</g>
<rect x="3" fill="#E6E6E6" width="1280" height="42"/>
<g opacity="0.2">
	<g>
		<line fill="none" stroke="#000000" stroke-miterlimit="10" x1="888" y1="212.5" x2="134" y2="212.5"/>
		<g>
			<rect x="887" y="206" width="2" height="13"/>
		</g>
		<g>
			<circle cx="133.76" cy="212.5" r="3.76"/>
		</g>
	</g>
</g>
<g opacity="0.2">
	<g>
		<line fill="none" stroke="#000000" stroke-miterlimit="10" x1="996" y1="292.5" x2="243" y2="292.5"/>
		<g>
			<path d="M981.926,282.9c-0.297,0.465-0.158,1.084,0.309,1.381l12.904,8.219l-12.904,8.219c-0.467,0.297-0.605,0.916-0.309,1.381
				s0.92,0.6,1.383,0.307l14.229-9.063c0.287-0.184,0.463-0.502,0.463-0.844s-0.176-0.66-0.463-0.844l-14.229-9.063
				c-0.168-0.105-0.354-0.156-0.537-0.156C982.441,282.438,982.117,282.602,981.926,282.9z"/>
		</g>
		<g>
			<circle cx="242.76" cy="292.5" r="3.76"/>
		</g>
	</g>
</g>
<g opacity="0.2">
	<g>
		<line fill="none" stroke="#000000" stroke-miterlimit="10" x1="1110" y1="365.5" x2="357" y2="365.5"/>
		<g>
			<path d="M1095.926,355.9c-0.297,0.465-0.158,1.084,0.309,1.381l12.904,8.219l-12.904,8.219c-0.467,0.297-0.605,0.916-0.309,1.381
				s0.92,0.6,1.383,0.307l14.229-9.063c0.287-0.184,0.463-0.502,0.463-0.844s-0.176-0.66-0.463-0.844l-14.229-9.063
				c-0.168-0.105-0.354-0.156-0.537-0.156C1096.441,355.438,1096.117,355.602,1095.926,355.9z"/>
		</g>
		<g>
			<circle cx="356.76" cy="365.5" r="3.76"/>
		</g>
	</g>
</g>
<g opacity="0.2">
	<g>
		<line fill="none" stroke="#000000" stroke-miterlimit="10" x1="996" y1="439.5" x2="243" y2="439.5"/>
		<g>
			<path d="M981.926,429.9c-0.297,0.465-0.158,1.084,0.309,1.381l12.904,8.219l-12.904,8.219c-0.467,0.297-0.605,0.916-0.309,1.381
				s0.92,0.6,1.383,0.307l14.229-9.063c0.287-0.184,0.463-0.502,0.463-0.844s-0.176-0.66-0.463-0.844l-14.229-9.063
				c-0.168-0.105-0.354-0.156-0.537-0.156C982.441,429.438,982.117,429.602,981.926,429.9z"/>
		</g>
		<g>
			<circle cx="242.76" cy="439.5" r="3.76"/>
		</g>
	</g>
</g>
<g opacity="0.2">
	<g>
		<line fill="none" stroke="#000000" stroke-miterlimit="10" x1="1248" y1="507.5" x2="495" y2="507.5"/>
		<g>
			<path d="M1233.926,497.9c-0.297,0.465-0.158,1.084,0.309,1.381l12.904,8.219l-12.904,8.219c-0.467,0.297-0.605,0.916-0.309,1.381
				s0.92,0.6,1.383,0.307l14.229-9.063c0.287-0.184,0.463-0.502,0.463-0.844s-0.176-0.66-0.463-0.844l-14.229-9.063
				c-0.168-0.105-0.354-0.156-0.537-0.156C1234.441,497.438,1234.117,497.602,1233.926,497.9z"/>
		</g>
		<g>
			<circle cx="494.76" cy="507.5" r="3.76"/>
		</g>
	</g>
</g>
<g opacity="0.2">
	<g>
		<path d="M437.813,514.22v-7.523h-4.434v5.811c0,1.009-0.672,1.713-1.697,1.713h-1.248v-0.864c0.352,0,0.721,0,1.072,0
			c0.465,0,0.801-0.4,0.801-0.849v-5.811h-1.553v-0.88h8.131v8.403H437.813z"/>
		<path d="M442.674,514.22v-7.523h-1.44v-0.88h2.513v8.403H442.674z"/>
		<path d="M447.457,510.346v-3.649h-1.439v-0.88h2.512v4.529H447.457z"/>
		<path d="M458.164,514.22v-7.523h-4.434v5.811c0,1.009-0.672,1.713-1.697,1.713h-1.248v-0.864c0.352,0,0.721,0,1.072,0
			c0.465,0,0.801-0.4,0.801-0.849v-5.811h-1.553v-0.88h8.131v8.403H458.164z"/>
		<path d="M470.453,508.745c-0.257,2.481-1.313,5.475-4.291,5.475h-3.393l-0.992-8.403h1.057l0.496,4.21h0.768
			c0.944,0,1.297-1.009,1.377-1.793c0.096-0.801,0.176-1.617,0.256-2.417h1.041c-0.097,0.864-0.177,1.744-0.272,2.609
			c-0.144,1.28-0.913,2.32-2.289,2.32h-0.8l0.304,2.609h2.081c2.576,0,3.377-2.337,3.602-4.498l0.32-3.041h1.039L470.453,508.745z"
			/>
		<path d="M480.067,514.22v-7.523h-4.434v5.811c0,1.009-0.673,1.713-1.696,1.713h-1.249v-0.864c0.353,0,0.72,0,1.072,0
			c0.464,0,0.8-0.4,0.8-0.849v-5.811h-1.553v-0.88h8.132v8.403H480.067z"/>
	</g>
</g>
<g opacity="0.2">
	<g>
		<path d="M173.444,444.554v-8.403h4.194c1.824,0,2.736,0.849,2.736,2.673v5.73H173.444z M179.303,438.968
			c0-1.297-0.416-1.938-1.793-1.938h-2.993v6.659h4.786V438.968z"/>
		<path d="M184.021,440.68v-3.649h-1.44v-0.88h2.513v4.529H184.021z"/>
		<path d="M189.652,444.554H188.1l-0.576-8.403h7.523C195.047,439.992,194.551,444.554,189.652,444.554z M188.66,437.03l0.449,6.659
			h0.943c3.346,0,3.922-4.098,3.922-6.659H188.66z"/>
		<path d="M198.452,444.554v-7.523h-1.44v-0.88h2.513v8.403H198.452z"/>
		<path d="M202.324,444.554v-0.864h5.378v-4.722c0-1.265-0.688-1.953-1.952-1.953h-2.354v3.457h-1.072v-4.321h3.393
			c1.953,0,3.058,1.088,3.058,3.041v5.362H202.324z"/>
		<path d="M215.254,444.554v-0.864h2.576v-4.722c0-1.265-0.704-1.938-1.969-1.938h-1.889l-1.313,7.523h-1.057l1.313-7.523h-1.713
			v-0.88h4.643c1.953,0,3.057,1.088,3.057,3.041v5.362H215.254z"/>
		<path d="M226.342,444.458h-1.121l2.945-7.428h-6.515v-0.88h7.939L226.342,444.458z M221.892,447.115v-7.764h1.072v7.764H221.892z"
			/>
	</g>
</g>
<g opacity="0.2">
	<g>
		<path d="M296.994,371.344v-8.402h4.193c1.824,0,2.736,0.848,2.736,2.672v5.73H296.994z M302.852,365.758
			c0-1.297-0.416-1.938-1.793-1.938h-2.992v6.66h4.785V365.758z"/>
		<path d="M307.57,367.471v-3.65h-1.441v-0.879h2.514v4.529H307.57z"/>
		<path d="M316.066,371.248h-1.12l2.945-7.428h-6.515v-0.879h7.939L316.066,371.248z M311.617,373.906v-7.764h1.072v7.764H311.617z"
			/>
		<path d="M325.154,371.344v-5.586c0-1.264-0.703-1.953-1.969-1.953h-2.721v-0.863h2.705c1.969,0,3.058,1.088,3.058,3.041v5.361
			H325.154z"/>
		<path d="M334.676,371.344c-0.561-0.912-1.121-1.824-1.697-2.721c-0.448-0.705-0.912-1.408-1.424-2.064
			c-0.145,0-0.337,0.064-0.449,0.127c-0.768,0.4-1.023,1.377-1.104,2.178c-0.097,0.832-0.177,1.648-0.257,2.48h-1.072
			c0.08-0.832,0.16-1.68,0.257-2.512c0.111-1.072,0.56-2.018,1.536-2.563c0.176-0.096,0.399-0.207,0.608-0.24l-2.545-3.088h1.313
			l2.961,3.713c0.128-0.016,0.288-0.064,0.4-0.111c0.704-0.32,1.008-0.977,1.137-1.713c0.096-0.625,0.191-1.266,0.287-1.889h1.072
			c-0.096,0.576-0.176,1.152-0.271,1.729c-0.16,0.992-0.625,1.84-1.537,2.32c-0.191,0.096-0.447,0.209-0.672,0.24l2.673,4.113
			H334.676z"/>
		<path d="M338.193,371.344v-0.863h5.378v-4.723c0-1.264-0.688-1.953-1.952-1.953h-2.354v3.457h-1.072v-4.32h3.393
			c1.953,0,3.058,1.088,3.058,3.041v5.361H338.193z"/>
	</g>
</g>
<g>
	<g>
		<rect x="25.703" y="8.791" fill="none" width="104.297" height="24.396"/>
		<path d="M41.152,23.602V11.645h8.715c0.988,0,1.862,0.713,1.862,1.863v10.094H41.152z M49.43,21.924v-7.865
			c0-0.436-0.391-0.713-0.713-0.713h-5.266v8.578H49.43z"/>
		<path d="M55.526,23.602V13.346h-2.3v-1.701h2.414c1.588,0,2.186,0.805,2.186,2.393v9.564H55.526z"/>
		<path d="M65.209,23.602H62.84l4.415-10.256h-7.589V8.885h2.301v2.76h7.656v1.701L65.209,23.602z"/>
		<path d="M71.189,23.602v-1.678h6.438v-7.865c0-0.436-0.392-0.713-0.713-0.713h-5.289v-1.701h6.438
			c0.989,0,1.863,0.713,1.863,1.863v8.416h1.609v1.678H71.189z"/>
		<path d="M96.074,23.602v-9.543c0-0.436-0.392-0.713-0.713-0.713h-6.646v-1.701h7.796c0.989,0,1.862,0.713,1.862,1.863v10.094
			H96.074z"/>
		<path d="M105.643,23.602h-2.369l4.415-10.256H100.1V8.885h2.301v2.76h7.656v1.701L105.643,23.602z"/>
		<path d="M113.394,17.854v-4.508h-2.3v-1.701h2.414c1.588,0,2.186,0.805,2.186,2.393v3.816H113.394z"/>
		<path d="M122.179,23.602v-1.678h4.369v-6.576c0-1.15-0.023-2.162-1.84-2.162c-0.827,0-3.013,0.92-3.312,2.967l-1.127,7.449h-2.299
			l1.563-10.256h-1.978v-1.701h2.392c1.725,0,1.794,1.426,1.794,1.426c1.08-1.426,2.506-1.586,3.195-1.586
			c1.564,0,3.91,0.689,3.91,3.264v8.854H122.179z"/>
	</g>
	<g>
		<rect x="-2" y="26.313" fill="none" width="132" height="16.896"/>
		<path d="M42.615,34.686v-0.949h2.47v-3.719c0-0.65-0.013-1.223-1.04-1.223c-0.469,0-1.703,0.521-1.872,1.678l-0.638,4.213h-1.299
			l0.883-5.799h-1.117v-0.963h1.352c0.975,0,1.014,0.807,1.014,0.807c0.611-0.807,1.418-0.896,1.808-0.896
			c0.884,0,2.21,0.391,2.21,1.846v5.006H42.615z"/>
		<path d="M48.01,29.875h-0.65l0.391-2.859h1.17L48.01,29.875z M49.804,29.875h-0.649l0.39-2.859h1.17L49.804,29.875z"/>
		<path d="M56.486,32.475c-0.144,1.742-0.43,2.211-2.601,2.211h-2.86v-0.949h1.82l-1.3-5.813h1.313l1.287,5.813
			c0.728,0,0.975-0.494,1.026-1.131l0.39-4.682h1.313L56.486,32.475z"/>
		<path d="M57.968,34.686v-0.949h3.64v-4.447c0-0.246-0.221-0.402-0.402-0.402h-2.99v-0.963h3.641c0.559,0,1.053,0.404,1.053,1.055
			v4.758h0.91v0.949H57.968z"/>
		<path d="M68.979,31.436v-2.549h-1.301v-0.963h1.365c0.897,0,1.235,0.455,1.235,1.354v2.158H68.979z"/>
		<path d="M76.168,34.686v-5.396c0-0.246-0.221-0.402-0.404-0.402h-2.287v3.965c0,0.988-0.701,1.834-1.795,1.834H70.98v-0.949h0.377
			c0.637,0,0.832-0.338,0.832-0.871v-3.979h-0.832v-0.963h5.057c0.559,0,1.053,0.404,1.053,1.055v5.707H76.168z"/>
		<path d="M78.611,34.686v-0.949h3.641v-4.447c0-0.246-0.221-0.402-0.402-0.402h-2.99v-0.963h3.639c0.561,0,1.055,0.404,1.055,1.055
			v4.758h0.91v0.949H78.611z"/>
		<path d="M85.982,31.436v-2.549h-1.299v-0.963h1.365c0.896,0,1.234,0.455,1.234,1.354v2.158H85.982z"/>
		<path d="M88.426,34.686v-0.949h3.641v-4.447c0-0.246-0.221-0.402-0.402-0.402h-2.99v-0.963h3.639c0.561,0,1.055,0.404,1.055,1.055
			v4.758h0.91v0.949H88.426z"/>
		<path d="M100.725,32.67c-0.143,1.768-0.768,2.016-2.639,2.016h-2.471l-0.559-6.762h6.045L100.725,32.67z M96.447,28.887
			l0.402,4.85h1.379c0.896,0,1.117-0.338,1.195-1.184l0.326-3.666H96.447z"/>
		<path d="M106.404,36.57v-7.125c0-0.311-0.246-0.559-0.559-0.559h-0.74v-0.963h1.26c0.742,0,1.34,0.6,1.34,1.34v7.307H106.404z"/>
		<path d="M109.85,34.686v-5.799h-1.299v-0.963h1.365c0.896,0,1.234,0.455,1.234,1.354v5.408H109.85z"/>
		<path d="M112.254,34.686v-0.949h1.951v-4.291c0-0.311-0.248-0.559-0.559-0.559h-0.742v-0.963h1.262c0.74,0,1.34,0.6,1.34,1.34
			v5.422H112.254z"/>
		<path d="M116.752,34.686v-0.949h3.9v-3.77c0-0.859-0.26-1.08-0.961-1.08h-3.068v-0.963h3.471c0.896,0,1.859,0.326,1.859,1.756
			v5.006H116.752z"/>
		<path d="M128.049,34.686v-5.396c0-0.246-0.221-0.402-0.402-0.402h-2.289v3.965c0,0.988-0.701,1.834-1.793,1.834h-0.703v-0.949
			h0.377c0.639,0,0.832-0.338,0.832-0.871v-3.979h-0.832v-0.963h5.059c0.559,0,1.053,0.404,1.053,1.055v5.707H128.049z"/>
	</g>
</g>
<g opacity="0.2">
	<g>
		<path d="M169.752,297.636v-5.586c0-1.265-0.703-1.953-1.969-1.953h-2.721v-0.864h2.705c1.969,0,3.058,1.088,3.058,3.041v5.362
			H169.752z"/>
		<path d="M179.273,297.636c-0.561-0.912-1.121-1.825-1.697-2.721c-0.448-0.705-0.912-1.409-1.424-2.065
			c-0.145,0-0.337,0.064-0.449,0.128c-0.768,0.4-1.023,1.377-1.104,2.177c-0.097,0.833-0.177,1.649-0.257,2.481h-1.072
			c0.08-0.832,0.16-1.681,0.257-2.513c0.111-1.072,0.56-2.018,1.536-2.562c0.176-0.096,0.399-0.208,0.608-0.24l-2.545-3.089h1.313
			l2.961,3.714c0.128-0.017,0.288-0.064,0.4-0.112c0.704-0.32,1.008-0.977,1.137-1.713c0.096-0.624,0.191-1.265,0.287-1.889h1.072
			c-0.096,0.576-0.176,1.152-0.271,1.729c-0.16,0.992-0.625,1.841-1.537,2.321c-0.191,0.096-0.447,0.208-0.672,0.24l2.673,4.113
			H179.273z"/>
		<path d="M189.705,297.636v-7.523h-4.434v5.811c0,1.009-0.672,1.713-1.696,1.713h-1.249v-0.864c0.353,0,0.721,0,1.072,0
			c0.465,0,0.801-0.4,0.801-0.849v-5.811h-1.553v-0.88h8.131v8.403H189.705z"/>
		<path d="M197.352,297.636v-0.864h2.578v-4.722c0-1.265-0.705-1.938-1.969-1.938h-1.889l-1.313,7.523h-1.056l1.313-7.523h-1.713
			v-0.88h4.642c1.952,0,3.058,1.088,3.058,3.041v5.362H197.352z"/>
		<path d="M207.639,299.028h-0.801l3.873-11.108h0.801L207.639,299.028z"/>
		<path d="M216.773,297.636v-0.864h4.258v-6.675h-4.258v-0.864h5.33v7.539h1.186v0.864H216.773z"/>
		<path d="M231.176,297.636c-0.56-0.912-1.12-1.825-1.696-2.721c-0.448-0.705-0.912-1.409-1.425-2.065
			c-0.144,0-0.336,0.064-0.447,0.128c-0.77,0.4-1.025,1.377-1.105,2.177c-0.096,0.833-0.176,1.649-0.256,2.481h-1.072
			c0.08-0.832,0.16-1.681,0.256-2.513c0.112-1.072,0.561-2.018,1.537-2.562c0.176-0.096,0.4-0.208,0.607-0.24l-2.545-3.089h1.313
			l2.962,3.714c0.128-0.017,0.288-0.064,0.399-0.112c0.705-0.32,1.009-0.977,1.137-1.713c0.096-0.624,0.192-1.265,0.289-1.889h1.072
			c-0.097,0.576-0.176,1.152-0.272,1.729c-0.16,0.992-0.624,1.841-1.536,2.321c-0.193,0.096-0.449,0.208-0.673,0.24l2.673,4.113
			H231.176z"/>
	</g>
</g>
<g opacity="0.2">
	<g>
		<path d="M86.578,212.804v-3.649h-1.441v-0.88h2.514v4.529H86.578z"/>
		<path d="M94.178,216.678v-5.586c0-1.265-0.703-1.953-1.969-1.953h-2.721v-0.864h2.705c1.969,0,3.058,1.088,3.058,3.041v5.362
			H94.178z"/>
		<path d="M103.731,216.678v-5.586c0-1.297-0.417-1.938-1.776-1.938H99.09v7.523h-1.072v-8.403h4.049
			c1.824,0,2.737,0.832,2.737,2.673v5.73H103.731z"/>
		<path d="M109.394,216.678h-1.553l-0.576-8.403h7.523C114.788,212.116,114.291,216.678,109.394,216.678z M108.401,209.154
			l0.448,6.659h0.944c3.345,0,3.921-4.098,3.921-6.659H108.401z"/>
		<path d="M120.979,216.678v-0.864h2.576v-4.722c0-1.265-0.704-1.938-1.969-1.938h-1.889l-1.313,7.523h-1.057l1.313-7.523h-1.713
			v-0.88h4.643c1.953,0,3.057,1.088,3.057,3.041v5.362H120.979z"/>
	</g>
</g>
<rect x="1131" y="13" fill="#FFFFFF" width="102" height="16"/>
<g>
	<circle fill="none" stroke="#000000" stroke-width="0.946" stroke-miterlimit="10" cx="1122.033" cy="18.83" r="4.967"/>
	
		<line fill="none" stroke="#000000" stroke-width="1.4191" stroke-miterlimit="10" x1="1118.486" y1="21.904" x2="1111.74" y2="29"/>
</g>
<g>
	<g>
		<g>
			<line fill="none" stroke="#B3B3B3" stroke-miterlimit="10" x1="30.5" y1="106" x2="30.5" y2="108"/>
			<line fill="none" stroke="#B3B3B3" stroke-miterlimit="10" stroke-dasharray="3,5" x1="30.5" y1="112" x2="30.5" y2="770"/>
			<line fill="none" stroke="#B3B3B3" stroke-miterlimit="10" x1="30.5" y1="773" x2="30.5" y2="774"/>
		</g>
	</g>
	<g>
		<g>
			<line fill="none" stroke="#B3B3B3" stroke-miterlimit="10" x1="166.5" y1="106" x2="166.5" y2="108"/>
			<line fill="none" stroke="#B3B3B3" stroke-miterlimit="10" stroke-dasharray="3,5" x1="166.5" y1="112" x2="166.5" y2="770"/>
			<line fill="none" stroke="#B3B3B3" stroke-miterlimit="10" x1="166.5" y1="773" x2="166.5" y2="774"/>
		</g>
	</g>
	<g>
		<g>
			<line fill="none" stroke="#B3B3B3" stroke-miterlimit="10" x1="302.5" y1="106" x2="302.5" y2="108"/>
			<line fill="none" stroke="#B3B3B3" stroke-miterlimit="10" stroke-dasharray="3,5" x1="302.5" y1="112" x2="302.5" y2="770"/>
			<line fill="none" stroke="#B3B3B3" stroke-miterlimit="10" x1="302.5" y1="773" x2="302.5" y2="774"/>
		</g>
	</g>
	<g>
		<g>
			<line fill="none" stroke="#B3B3B3" stroke-miterlimit="10" x1="438.5" y1="106" x2="438.5" y2="108"/>
			<line fill="none" stroke="#B3B3B3" stroke-miterlimit="10" stroke-dasharray="3,5" x1="438.5" y1="112" x2="438.5" y2="770"/>
			<line fill="none" stroke="#B3B3B3" stroke-miterlimit="10" x1="438.5" y1="773" x2="438.5" y2="774"/>
		</g>
	</g>
	<g>
		<g>
			<line fill="none" stroke="#B3B3B3" stroke-miterlimit="10" x1="574.5" y1="106" x2="574.5" y2="108"/>
			<line fill="none" stroke="#B3B3B3" stroke-miterlimit="10" stroke-dasharray="3,5" x1="574.5" y1="112" x2="574.5" y2="770"/>
			<line fill="none" stroke="#B3B3B3" stroke-miterlimit="10" x1="574.5" y1="773" x2="574.5" y2="774"/>
		</g>
	</g>
	<g>
		<g>
			<line fill="none" stroke="#B3B3B3" stroke-miterlimit="10" x1="710.5" y1="106" x2="710.5" y2="108"/>
			<line fill="none" stroke="#B3B3B3" stroke-miterlimit="10" stroke-dasharray="3,5" x1="710.5" y1="112" x2="710.5" y2="770"/>
			<line fill="none" stroke="#B3B3B3" stroke-miterlimit="10" x1="710.5" y1="773" x2="710.5" y2="774"/>
		</g>
	</g>
	<g>
		<g>
			<line fill="none" stroke="#B3B3B3" stroke-miterlimit="10" x1="846.5" y1="106" x2="846.5" y2="108"/>
			<line fill="none" stroke="#B3B3B3" stroke-miterlimit="10" stroke-dasharray="3,5" x1="846.5" y1="112" x2="846.5" y2="770"/>
			<line fill="none" stroke="#B3B3B3" stroke-miterlimit="10" x1="846.5" y1="773" x2="846.5" y2="774"/>
		</g>
	</g>
	<g>
		<g>
			<line fill="none" stroke="#B3B3B3" stroke-miterlimit="10" x1="982.5" y1="106" x2="982.5" y2="108"/>
			<line fill="none" stroke="#B3B3B3" stroke-miterlimit="10" stroke-dasharray="3,5" x1="982.5" y1="112" x2="982.5" y2="770"/>
			<line fill="none" stroke="#B3B3B3" stroke-miterlimit="10" x1="982.5" y1="773" x2="982.5" y2="774"/>
		</g>
	</g>
	<g>
		<g>
			<line fill="none" stroke="#B3B3B3" stroke-miterlimit="10" x1="1118.5" y1="106" x2="1118.5" y2="108"/>
			<line fill="none" stroke="#B3B3B3" stroke-miterlimit="10" stroke-dasharray="3,5" x1="1118.5" y1="112" x2="1118.5" y2="770"/>
			<line fill="none" stroke="#B3B3B3" stroke-miterlimit="10" x1="1118.5" y1="773" x2="1118.5" y2="774"/>
		</g>
	</g>
	<g>
		<g>
			<line fill="none" stroke="#B3B3B3" stroke-miterlimit="10" x1="1254.5" y1="106" x2="1254.5" y2="108"/>
			<line fill="none" stroke="#B3B3B3" stroke-miterlimit="10" stroke-dasharray="3,5" x1="1254.5" y1="112" x2="1254.5" y2="770"/>
			<line fill="none" stroke="#B3B3B3" stroke-miterlimit="10" x1="1254.5" y1="773" x2="1254.5" y2="774"/>
		</g>
	</g>
	<g>
		<path fill="#808080" d="M25.061,67.065h7.603l-1.985-2.353h0.913l1.952,2.433v0.929h-8.482V67.065z"/>
		<path fill="#808080" d="M24.82,74.313c0-0.528,0.08-1.489,0.384-1.953h0.929c-0.369,0.448-0.496,1.409-0.496,1.953
			c0,2.385,2.129,2.769,4.033,2.769c-0.864-0.256-1.473-1.439-1.473-2.289c0-1.76,0.832-2.961,2.705-2.961
			c1.729,0,2.801,1.328,2.801,2.994c0,2.368-1.904,3.201-4.018,3.201C27.221,78.027,24.82,77.146,24.82,74.313z M32.92,74.826
			c0-1.249-0.77-2.018-2.018-2.018c-1.28,0-1.969,0.752-1.969,2.018c0,1.152,0.801,2.032,1.969,2.032
			C32.119,76.858,32.92,76.025,32.92,74.826z"/>
		<path fill="#808080" d="M24.82,82.313c0-0.528,0.08-1.489,0.384-1.953h0.929c-0.369,0.448-0.496,1.409-0.496,1.953
			c0,2.385,2.129,2.769,4.033,2.769c-0.864-0.256-1.473-1.439-1.473-2.289c0-1.76,0.832-2.961,2.705-2.961
			c1.729,0,2.801,1.328,2.801,2.994c0,2.368-1.904,3.201-4.018,3.201C27.221,86.027,24.82,85.146,24.82,82.313z M32.92,82.826
			c0-1.249-0.77-2.018-2.018-2.018c-1.28,0-1.969,0.752-1.969,2.018c0,1.152,0.801,2.032,1.969,2.032
			C32.119,84.858,32.92,84.025,32.92,82.826z"/>
		<path fill="#808080" d="M24.82,91.002c0-2.529,2.353-3.074,4.449-3.074c2.113,0,4.434,0.561,4.434,3.09s-2.353,3.073-4.449,3.073
			C27.125,94.091,24.82,93.547,24.82,91.002z M32.936,91.018c0-1.921-2.209-2.113-3.666-2.113c-1.473,0-3.665,0.177-3.665,2.113
			c0,1.938,2.208,2.097,3.665,2.097C30.711,93.114,32.936,92.938,32.936,91.018z"/>
	</g>
	<g>
		<path fill="#808080" d="M161.061,67.065h7.603l-1.985-2.353h0.913l1.952,2.433v0.929h-8.482V67.065z"/>
		<path fill="#808080" d="M160.82,74.313c0-0.528,0.08-1.489,0.384-1.953h0.929c-0.369,0.448-0.496,1.409-0.496,1.953
			c0,2.385,2.129,2.769,4.033,2.769c-0.864-0.256-1.473-1.439-1.473-2.289c0-1.76,0.832-2.961,2.705-2.961
			c1.729,0,2.801,1.328,2.801,2.994c0,2.368-1.904,3.201-4.018,3.201C163.221,78.027,160.82,77.146,160.82,74.313z M168.92,74.826
			c0-1.249-0.77-2.018-2.018-2.018c-1.28,0-1.969,0.752-1.969,2.018c0,1.152,0.801,2.032,1.969,2.032
			C168.119,76.858,168.92,76.025,168.92,74.826z"/>
		<path fill="#808080" d="M160.82,82.313c0-0.528,0.08-1.489,0.384-1.953h0.929c-0.369,0.448-0.496,1.409-0.496,1.953
			c0,2.385,2.129,2.769,4.033,2.769c-0.864-0.256-1.473-1.439-1.473-2.289c0-1.76,0.832-2.961,2.705-2.961
			c1.729,0,2.801,1.328,2.801,2.994c0,2.368-1.904,3.201-4.018,3.201C163.221,86.027,160.82,85.146,160.82,82.313z M168.92,82.826
			c0-1.249-0.77-2.018-2.018-2.018c-1.28,0-1.969,0.752-1.969,2.018c0,1.152,0.801,2.032,1.969,2.032
			C168.119,84.858,168.92,84.025,168.92,82.826z"/>
		<path fill="#808080" d="M161.061,91.065h7.603l-1.985-2.353h0.913l1.952,2.433v0.929h-8.482V91.065z"/>
	</g>
	<g>
		<path fill="#808080" d="M297.061,67.065h7.603l-1.985-2.353h0.913l1.952,2.433v0.929h-8.482V67.065z"/>
		<path fill="#808080" d="M296.82,74.313c0-0.528,0.08-1.489,0.384-1.953h0.929c-0.369,0.448-0.496,1.409-0.496,1.953
			c0,2.385,2.129,2.769,4.033,2.769c-0.864-0.256-1.473-1.439-1.473-2.289c0-1.76,0.832-2.961,2.705-2.961
			c1.729,0,2.801,1.328,2.801,2.994c0,2.368-1.904,3.201-4.018,3.201C299.221,78.027,296.82,77.146,296.82,74.313z M304.92,74.826
			c0-1.249-0.77-2.018-2.018-2.018c-1.28,0-1.969,0.752-1.969,2.018c0,1.152,0.801,2.032,1.969,2.032
			C304.119,76.858,304.92,76.025,304.92,74.826z"/>
		<path fill="#808080" d="M296.82,82.313c0-0.528,0.08-1.489,0.384-1.953h0.929c-0.369,0.448-0.496,1.409-0.496,1.953
			c0,2.385,2.129,2.769,4.033,2.769c-0.864-0.256-1.473-1.439-1.473-2.289c0-1.76,0.832-2.961,2.705-2.961
			c1.729,0,2.801,1.328,2.801,2.994c0,2.368-1.904,3.201-4.018,3.201C299.221,86.027,296.82,85.146,296.82,82.313z M304.92,82.826
			c0-1.249-0.77-2.018-2.018-2.018c-1.28,0-1.969,0.752-1.969,2.018c0,1.152,0.801,2.032,1.969,2.032
			C304.119,84.858,304.92,84.025,304.92,82.826z"/>
		<path fill="#808080" d="M297.061,88.024h0.88l3.281,3.714c0.433,0.48,1.2,0.928,1.856,0.928c1.488,0,1.825-0.96,1.825-2.24
			c0-0.688-0.224-1.729-0.769-2.225h0.944c0.464,0.479,0.624,1.6,0.624,2.225c0,1.793-0.576,3.232-2.625,3.232
			c-0.912,0-1.824-0.607-2.385-1.28l-2.85-3.394v4.898h-0.783V88.024z"/>
	</g>
	<g>
		<path fill="#808080" d="M433.061,67.065h7.603l-1.985-2.353h0.913l1.952,2.433v0.929h-8.482V67.065z"/>
		<path fill="#808080" d="M432.82,74.313c0-0.528,0.08-1.489,0.384-1.953h0.929c-0.369,0.448-0.496,1.409-0.496,1.953
			c0,2.385,2.129,2.769,4.033,2.769c-0.864-0.256-1.473-1.439-1.473-2.289c0-1.76,0.832-2.961,2.705-2.961
			c1.729,0,2.801,1.328,2.801,2.994c0,2.368-1.904,3.201-4.018,3.201C435.221,78.027,432.82,77.146,432.82,74.313z M440.92,74.826
			c0-1.249-0.77-2.018-2.018-2.018c-1.28,0-1.969,0.752-1.969,2.018c0,1.152,0.801,2.032,1.969,2.032
			C440.119,76.858,440.92,76.025,440.92,74.826z"/>
		<path fill="#808080" d="M432.82,82.313c0-0.528,0.08-1.489,0.384-1.953h0.929c-0.369,0.448-0.496,1.409-0.496,1.953
			c0,2.385,2.129,2.769,4.033,2.769c-0.864-0.256-1.473-1.439-1.473-2.289c0-1.76,0.832-2.961,2.705-2.961
			c1.729,0,2.801,1.328,2.801,2.994c0,2.368-1.904,3.201-4.018,3.201C435.221,86.027,432.82,85.146,432.82,82.313z M440.92,82.826
			c0-1.249-0.77-2.018-2.018-2.018c-1.28,0-1.969,0.752-1.969,2.018c0,1.152,0.801,2.032,1.969,2.032
			C440.119,84.858,440.92,84.025,440.92,82.826z"/>
		<path fill="#808080" d="M432.82,90.474c0-0.48,0.224-2.097,0.576-2.433h0.88c-0.399,0.607-0.704,1.712-0.704,2.433
			c0,1.072,0.545,2.337,1.793,2.337c1.473,0,1.824-1.602,1.824-2.785v-0.528h0.769v0.528c0,0.944,0.304,2.465,1.521,2.465
			c1.009,0,1.441-1.168,1.441-2.017c0-0.624-0.145-1.81-0.609-2.306h0.816c0.433,0.529,0.576,1.665,0.576,2.306
			c0,1.408-0.56,2.993-2.209,2.993c-0.992,0-1.616-0.929-1.904-1.777c-0.208,1.152-1.024,2.098-2.273,2.098
			C433.508,93.787,432.82,92.025,432.82,90.474z"/>
	</g>
	<g>
		<path fill="#808080" d="M569.061,67.065h7.603l-1.985-2.353h0.913l1.952,2.433v0.929h-8.482V67.065z"/>
		<path fill="#808080" d="M568.82,74.313c0-0.528,0.08-1.489,0.384-1.953h0.929c-0.369,0.448-0.496,1.409-0.496,1.953
			c0,2.385,2.129,2.769,4.033,2.769c-0.864-0.256-1.473-1.439-1.473-2.289c0-1.76,0.832-2.961,2.705-2.961
			c1.729,0,2.801,1.328,2.801,2.994c0,2.368-1.904,3.201-4.018,3.201C571.221,78.027,568.82,77.146,568.82,74.313z M576.92,74.826
			c0-1.249-0.77-2.018-2.018-2.018c-1.28,0-1.969,0.752-1.969,2.018c0,1.152,0.801,2.032,1.969,2.032
			C576.119,76.858,576.92,76.025,576.92,74.826z"/>
		<path fill="#808080" d="M568.82,82.313c0-0.528,0.08-1.489,0.384-1.953h0.929c-0.369,0.448-0.496,1.409-0.496,1.953
			c0,2.385,2.129,2.769,4.033,2.769c-0.864-0.256-1.473-1.439-1.473-2.289c0-1.76,0.832-2.961,2.705-2.961
			c1.729,0,2.801,1.328,2.801,2.994c0,2.368-1.904,3.201-4.018,3.201C571.221,86.027,568.82,85.146,568.82,82.313z M576.92,82.826
			c0-1.249-0.77-2.018-2.018-2.018c-1.28,0-1.969,0.752-1.969,2.018c0,1.152,0.801,2.032,1.969,2.032
			C576.119,84.858,576.92,84.025,576.92,82.826z"/>
		<path fill="#808080" d="M571.061,93.019h-2v-0.993h2v-4.305h1.152l5.33,3.873v1.425h-5.617v1.2h-0.865V93.019z M576.903,92.025
			l-4.978-3.585v3.585H576.903z"/>
	</g>
	<g>
		<path fill="#808080" d="M705.061,67.065h7.603l-1.985-2.353h0.913l1.952,2.433v0.929h-8.482V67.065z"/>
		<path fill="#808080" d="M704.82,74.313c0-0.528,0.08-1.489,0.384-1.953h0.929c-0.369,0.448-0.496,1.409-0.496,1.953
			c0,2.385,2.129,2.769,4.033,2.769c-0.864-0.256-1.473-1.439-1.473-2.289c0-1.76,0.832-2.961,2.705-2.961
			c1.729,0,2.801,1.328,2.801,2.994c0,2.368-1.904,3.201-4.018,3.201C707.221,78.027,704.82,77.146,704.82,74.313z M712.92,74.826
			c0-1.249-0.77-2.018-2.018-2.018c-1.28,0-1.969,0.752-1.969,2.018c0,1.152,0.801,2.032,1.969,2.032
			C712.119,76.858,712.92,76.025,712.92,74.826z"/>
		<path fill="#808080" d="M704.82,82.313c0-0.528,0.08-1.489,0.384-1.953h0.929c-0.369,0.448-0.496,1.409-0.496,1.953
			c0,2.385,2.129,2.769,4.033,2.769c-0.864-0.256-1.473-1.439-1.473-2.289c0-1.76,0.832-2.961,2.705-2.961
			c1.729,0,2.801,1.328,2.801,2.994c0,2.368-1.904,3.201-4.018,3.201C707.221,86.027,704.82,85.146,704.82,82.313z M712.92,82.826
			c0-1.249-0.77-2.018-2.018-2.018c-1.28,0-1.969,0.752-1.969,2.018c0,1.152,0.801,2.032,1.969,2.032
			C712.119,84.858,712.92,84.025,712.92,82.826z"/>
		<path fill="#808080" d="M704.82,90.602c0-0.705,0.128-1.841,0.512-2.465h0.912c-0.4,0.688-0.64,1.696-0.64,2.48
			c0,1.345,0.56,2.434,2.049,2.434c1.296,0,1.841-1.345,1.841-2.449c0-0.721-0.096-1.488-0.289-2.177h4.258v5.25h-0.783v-4.321
			h-2.625c0.111,0.512,0.16,1.056,0.16,1.584c0,1.697-0.705,3.09-2.594,3.09C705.524,94.027,704.82,92.458,704.82,90.602z"/>
	</g>
	<g>
		<path fill="#808080" d="M841.061,67.065h7.603l-1.985-2.353h0.913l1.952,2.433v0.929h-8.482V67.065z"/>
		<path fill="#808080" d="M840.82,74.313c0-0.528,0.08-1.489,0.384-1.953h0.929c-0.369,0.448-0.496,1.409-0.496,1.953
			c0,2.385,2.129,2.769,4.033,2.769c-0.864-0.256-1.473-1.439-1.473-2.289c0-1.76,0.832-2.961,2.705-2.961
			c1.729,0,2.801,1.328,2.801,2.994c0,2.368-1.904,3.201-4.018,3.201C843.221,78.027,840.82,77.146,840.82,74.313z M848.92,74.826
			c0-1.249-0.77-2.018-2.018-2.018c-1.28,0-1.969,0.752-1.969,2.018c0,1.152,0.801,2.032,1.969,2.032
			C848.119,76.858,848.92,76.025,848.92,74.826z"/>
		<path fill="#808080" d="M840.82,82.313c0-0.528,0.08-1.489,0.384-1.953h0.929c-0.369,0.448-0.496,1.409-0.496,1.953
			c0,2.385,2.129,2.769,4.033,2.769c-0.864-0.256-1.473-1.439-1.473-2.289c0-1.76,0.832-2.961,2.705-2.961
			c1.729,0,2.801,1.328,2.801,2.994c0,2.368-1.904,3.201-4.018,3.201C843.221,86.027,840.82,85.146,840.82,82.313z M848.92,82.826
			c0-1.249-0.77-2.018-2.018-2.018c-1.28,0-1.969,0.752-1.969,2.018c0,1.152,0.801,2.032,1.969,2.032
			C848.119,84.858,848.92,84.025,848.92,82.826z"/>
		<path fill="#808080" d="M840.82,91.162c0-2.545,2.225-3.234,4.401-3.234c1.585,0,3.281,0.513,4.098,1.985
			c0.24,0.448,0.384,0.96,0.384,1.473c0,0.464-0.063,1.889-0.447,2.257h-0.849c0.399-0.528,0.544-1.601,0.544-2.24
			c0-1.938-2.434-2.529-3.97-2.529c0.896,0.336,1.601,1.328,1.601,2.289c0,1.889-0.928,3.025-2.865,3.025
			C841.924,94.188,840.82,92.922,840.82,91.162z M845.814,91.162c0-1.169-0.896-2.033-2.049-2.033c-1.186,0-2.161,0.816-2.161,2.033
			c0,1.313,0.849,2.049,2.128,2.049C844.981,93.211,845.814,92.426,845.814,91.162z"/>
	</g>
	<g>
		<path fill="#808080" d="M977.061,67.065h7.603l-1.985-2.353h0.913l1.952,2.433v0.929h-8.482V67.065z"/>
		<path fill="#808080" d="M976.82,74.313c0-0.528,0.08-1.489,0.384-1.953h0.929c-0.369,0.448-0.496,1.409-0.496,1.953
			c0,2.385,2.129,2.769,4.033,2.769c-0.864-0.256-1.473-1.439-1.473-2.289c0-1.76,0.832-2.961,2.705-2.961
			c1.729,0,2.801,1.328,2.801,2.994c0,2.368-1.904,3.201-4.018,3.201C979.221,78.027,976.82,77.146,976.82,74.313z M984.92,74.826
			c0-1.249-0.77-2.018-2.018-2.018c-1.28,0-1.969,0.752-1.969,2.018c0,1.152,0.801,2.032,1.969,2.032
			C984.119,76.858,984.92,76.025,984.92,74.826z"/>
		<path fill="#808080" d="M976.82,82.313c0-0.528,0.08-1.489,0.384-1.953h0.929c-0.369,0.448-0.496,1.409-0.496,1.953
			c0,2.385,2.129,2.769,4.033,2.769c-0.864-0.256-1.473-1.439-1.473-2.289c0-1.76,0.832-2.961,2.705-2.961
			c1.729,0,2.801,1.328,2.801,2.994c0,2.368-1.904,3.201-4.018,3.201C979.221,86.027,976.82,85.146,976.82,82.313z M984.92,82.826
			c0-1.249-0.77-2.018-2.018-2.018c-1.28,0-1.969,0.752-1.969,2.018c0,1.152,0.801,2.032,1.969,2.032
			C984.119,84.858,984.92,84.025,984.92,82.826z"/>
		<path fill="#808080" d="M982.678,93.035c-1.76-1.073-3.602-1.938-5.617-2.402V89.48c1.776,0.433,3.408,1.232,4.961,2.178
			c0.881,0.527,1.713,1.137,2.578,1.664v-5.538h0.863v6.354h-1.008C983.863,93.787,983.271,93.387,982.678,93.035z"/>
	</g>
	<g>
		<path fill="#808080" d="M1111.627,67.065h7.603l-1.985-2.353h0.913l1.952,2.433v0.929h-8.482V67.065z"/>
		<path fill="#808080" d="M1111.387,74.313c0-0.528,0.08-1.489,0.384-1.953h0.929c-0.369,0.448-0.496,1.409-0.496,1.953
			c0,2.385,2.129,2.769,4.033,2.769c-0.864-0.256-1.473-1.439-1.473-2.289c0-1.76,0.832-2.961,2.705-2.961
			c1.729,0,2.801,1.328,2.801,2.994c0,2.368-1.904,3.201-4.018,3.201C1113.787,78.027,1111.387,77.146,1111.387,74.313z
			 M1119.486,74.826c0-1.249-0.77-2.018-2.018-2.018c-1.28,0-1.969,0.752-1.969,2.018c0,1.152,0.801,2.032,1.969,2.032
			C1118.686,76.858,1119.486,76.025,1119.486,74.826z"/>
		<path fill="#808080" d="M1111.387,82.313c0-0.528,0.08-1.489,0.384-1.953h0.929c-0.369,0.448-0.496,1.409-0.496,1.953
			c0,2.385,2.129,2.769,4.033,2.769c-0.864-0.256-1.473-1.439-1.473-2.289c0-1.76,0.832-2.961,2.705-2.961
			c1.729,0,2.801,1.328,2.801,2.994c0,2.368-1.904,3.201-4.018,3.201C1113.787,86.027,1111.387,85.146,1111.387,82.313z
			 M1119.486,82.826c0-1.249-0.77-2.018-2.018-2.018c-1.28,0-1.969,0.752-1.969,2.018c0,1.152,0.801,2.032,1.969,2.032
			C1118.686,84.858,1119.486,84.025,1119.486,82.826z"/>
		<path fill="#808080" d="M1111.387,91.002c0-1.633,0.704-3.058,2.529-3.058c1.136,0,1.904,0.64,2.176,1.729
			c0.225-0.88,0.945-1.488,1.873-1.488c1.568,0,2.321,1.409,2.321,2.817c0,1.376-0.736,2.816-2.289,2.816
			c-0.929,0-1.633-0.527-1.905-1.408c-0.271,1.104-1.057,1.648-2.176,1.648C1112.091,94.059,1111.387,92.635,1111.387,91.002z
			 M1115.725,91.002c0-1.072-0.593-2.081-1.777-2.081c-1.2,0-1.809,0.976-1.809,2.081c0,1.104,0.608,2.08,1.809,2.08
			C1115.132,93.082,1115.725,92.074,1115.725,91.002z M1119.565,91.002c0-0.912-0.544-1.857-1.552-1.857
			c-0.945,0-1.553,1.009-1.553,1.857c0,0.848,0.607,1.856,1.553,1.856C1119.021,92.858,1119.565,91.914,1119.565,91.002z"/>
	</g>
	<g>
		<path fill="#808080" d="M1248.127,67.065h7.603l-1.985-2.353h0.913l1.952,2.433v0.929h-8.482V67.065z"/>
		<path fill="#808080" d="M1247.887,74.313c0-0.528,0.08-1.489,0.384-1.953h0.929c-0.369,0.448-0.496,1.409-0.496,1.953
			c0,2.385,2.129,2.769,4.033,2.769c-0.864-0.256-1.473-1.439-1.473-2.289c0-1.76,0.832-2.961,2.705-2.961
			c1.729,0,2.801,1.328,2.801,2.994c0,2.368-1.904,3.201-4.018,3.201C1250.287,78.027,1247.887,77.146,1247.887,74.313z
			 M1255.986,74.826c0-1.249-0.77-2.018-2.018-2.018c-1.28,0-1.969,0.752-1.969,2.018c0,1.152,0.801,2.032,1.969,2.032
			C1255.186,76.858,1255.986,76.025,1255.986,74.826z"/>
		<path fill="#808080" d="M1247.887,82.313c0-0.528,0.08-1.489,0.384-1.953h0.929c-0.369,0.448-0.496,1.409-0.496,1.953
			c0,2.385,2.129,2.769,4.033,2.769c-0.864-0.256-1.473-1.439-1.473-2.289c0-1.76,0.832-2.961,2.705-2.961
			c1.729,0,2.801,1.328,2.801,2.994c0,2.368-1.904,3.201-4.018,3.201C1250.287,86.027,1247.887,85.146,1247.887,82.313z
			 M1255.986,82.826c0-1.249-0.77-2.018-2.018-2.018c-1.28,0-1.969,0.752-1.969,2.018c0,1.152,0.801,2.032,1.969,2.032
			C1255.186,84.858,1255.986,84.025,1255.986,82.826z"/>
		<path fill="#808080" d="M1247.887,90.313c0-0.528,0.08-1.489,0.384-1.953h0.929c-0.369,0.448-0.496,1.409-0.496,1.953
			c0,2.385,2.129,2.769,4.033,2.769c-0.864-0.256-1.473-1.439-1.473-2.289c0-1.76,0.832-2.961,2.705-2.961
			c1.729,0,2.801,1.328,2.801,2.994c0,2.368-1.904,3.201-4.018,3.201C1250.287,94.027,1247.887,93.146,1247.887,90.313z
			 M1255.986,90.826c0-1.249-0.77-2.018-2.018-2.018c-1.28,0-1.969,0.752-1.969,2.018c0,1.152,0.801,2.032,1.969,2.032
			C1255.186,92.858,1255.986,92.025,1255.986,90.826z"/>
	</g>
</g>
<circle opacity="0.2" cx="244.5" cy="212.5" r="5.5"/>
<circle opacity="0.2" cx="263.5" cy="212.5" r="5.5"/>
<circle opacity="0.2" cx="353.5" cy="292.5" r="5.5"/>
<circle opacity="0.2" cx="433.5" cy="292.5" r="5.5"/>
<circle opacity="0.2" cx="579.5" cy="439.5" r="5.5"/>
<circle opacity="0.2" cx="732.5" cy="439.5" r="5.5"/>
<circle opacity="0.2" cx="916.5" cy="507.5" r="5.5"/>
<circle opacity="0.2" cx="1080.5" cy="507.5" r="5.5"/>
<circle opacity="0.2" cx="659.5" cy="292.5" r="5.5"/>
<circle opacity="0.2" cx="546.5" cy="292.5" r="5.5"/>
<circle opacity="0.2" cx="307.5" cy="439.5" r="5.5"/>
<circle opacity="0.2" cx="689.5" cy="507.5" r="5.5"/>
<circle opacity="0.2" cx="743.5" cy="507.5" r="5.5"/>
<circle opacity="0.2" cx="916.5" cy="439.5" r="5.5"/>
<circle opacity="0.2" cx="574.5" cy="365.5" r="5.5"/>
<circle opacity="0.2" cx="802.5" cy="365.5" r="5.5"/>
<circle opacity="0.2" cx="942.5" cy="365.5" r="5.5"/>
<circle opacity="0.2" cx="406.5" cy="212.5" r="5.5"/>
<circle opacity="0.2" cx="438.5" cy="212.5" r="5.5"/>
<circle opacity="0.2" cx="530.5" cy="212.5" r="5.5"/>
<circle opacity="0.2" cx="624.5" cy="212.5" r="5.5"/>
<circle opacity="0.2" cx="648.5" cy="212.5" r="5.5"/>
<circle opacity="0.2" cx="755.5" cy="212.5" r="5.5"/>
<g opacity="0.2">
	<path fill="#FFE000" d="M244.5,434c14.34,2.061,28.87,2.074,43.249,0.928c7.193-0.599,14.354-1.515,21.48-2.625
		c7.128-1.109,14.212-2.487,21.25-4.063c7.04-1.57,14.042-3.307,20.989-5.247c6.947-1.937,13.864-3.982,20.729-6.197
		c6.865-2.213,13.7-4.519,20.481-6.979c6.781-2.459,13.531-5.003,20.234-7.669c13.411-5.322,26.661-11.043,39.778-17.054
		c13.123-5.998,26.109-12.297,38.959-18.861c12.847-6.569,25.562-13.396,38.134-20.47c6.283-3.54,12.532-7.141,18.736-10.81
		c6.188-3.673,12.401-7.397,18.427-11.206l-0.304,0.213c14.043-11.085,28.237-21.853,42.598-32.47
		c14.368-10.592,28.978-20.867,43.775-30.898c14.818-10.002,29.835-19.764,45.417-28.729c7.791-4.486,15.691-8.821,23.845-12.808
		c8.17-3.964,16.506-7.696,25.616-10.351c2.299-0.672,4.576-1.204,7.126-1.664l0.833-0.133l1.063-0.131
		c0.712-0.08,1.343-0.127,2.026-0.161c1.343-0.074,2.717-0.033,4.091,0.086c2.753,0.235,5.533,0.939,8.121,2.045
		c2.581,1.125,4.959,2.643,7.012,4.403c4.129,3.538,7.039,7.828,9.344,12.146c2.292,4.344,3.996,8.803,5.408,13.272
		c2.794,8.951,4.463,17.968,5.761,26.955c1.276,8.991,2.117,17.968,2.784,26.92c0.663,8.951,1.138,17.881,1.604,26.771
		c0.474,8.885,0.909,17.751,1.664,26.465c0.386,4.347,0.848,8.673,1.567,12.796c0.365,2.071,0.79,4.019,1.35,5.902
		c0.598,2.04,1.254,4.056,1.973,6.057c2.871,8.001,6.652,15.694,11.314,22.776c4.656,7.084,10.205,13.563,16.567,19.113
		c6.357,5.555,13.509,10.192,21.207,13.737c15.374,7.243,32.758,10.006,50.071,9.797c4.301-0.078,8.797-0.226,12.829-0.827
		c4.194-0.598,8.382-1.547,12.526-2.727c8.292-2.376,16.429-5.603,24.362-9.317c15.88-7.45,31.038-16.643,45.736-26.484
		c7.349-4.933,14.581-10.056,21.718-15.317c7.15-5.244,14.206-10.628,21.183-16.118c13.951-10.983,27.588-22.389,40.984-34.077
		c13.422-11.66,26.609-23.604,39.58-35.784c12.972-12.179,25.819-24.505,38.3-37.204c-12.024,13.134-24.386,25.966-36.978,38.57
		c-12.616,12.58-25.457,24.943-38.565,37.029c-13.139,12.053-26.537,23.837-40.285,35.227c-6.875,5.693-13.84,11.286-20.912,16.75
		c-7.089,5.443-14.285,10.756-21.621,15.89c-14.678,10.245-29.869,19.886-46.088,27.888c-8.111,3.982-16.498,7.542-25.286,10.209
		c-4.397,1.318-8.896,2.41-13.506,3.135l-1.733,0.257l-1.79,0.216c-0.611,0.078-1.124,0.109-1.69,0.167l-0.892,0.079l-0.852,0.061
		c-2.271,0.18-4.546,0.295-6.826,0.391c-9.119,0.314-18.323-0.121-27.435-1.6c-9.105-1.469-18.117-4-26.657-7.766
		c-8.532-3.771-16.544-8.807-23.68-14.864c-7.144-6.056-13.381-13.139-18.61-20.854c-5.236-7.718-9.481-16.058-12.747-24.766
		c-0.817-2.176-1.57-4.384-2.257-6.605c-0.741-2.374-1.254-4.786-1.67-7.095c-0.824-4.646-1.313-9.181-1.73-13.696
		c-0.809-9.022-1.271-17.941-1.773-26.831c-0.495-8.887-0.993-17.735-1.674-26.536c-0.682-8.799-1.534-17.555-2.787-26.188
		c-1.267-8.619-2.902-17.161-5.447-25.206c-1.277-4.011-2.795-7.89-4.674-11.416c-1.875-3.514-4.141-6.672-6.804-8.927
		c-2.652-2.281-5.647-3.601-9.008-3.907c-0.841-0.072-1.697-0.109-2.577-0.06c-0.427,0.019-0.908,0.055-1.301,0.098l-0.596,0.065
		l-0.815,0.127c-1.829,0.328-3.899,0.779-5.872,1.354c-8.013,2.277-16.031,5.771-23.879,9.541
		c-7.862,3.792-15.602,7.983-23.26,12.342c-15.289,8.782-30.336,18.137-45.176,27.832c-14.849,9.688-29.46,19.77-44.011,29.948
		c-14.541,10.179-28.993,20.566-43.18,31.182l-0.195,0.146l-0.108,0.066c-6.258,3.846-12.497,7.498-18.824,11.093
		c-6.314,3.591-12.668,7.108-19.053,10.563c-12.773,6.903-25.681,13.554-38.715,19.941c-13.037,6.383-26.207,12.496-39.511,18.305
		c-13.315,5.782-26.776,11.232-40.382,16.299c-6.802,2.535-13.65,4.948-20.526,7.274c-6.877,2.328-13.807,4.5-20.763,6.576
		c-6.952,2.092-13.971,3.966-21.014,5.729c-7.041,1.769-14.136,3.332-21.261,4.725c-7.124,1.4-14.288,2.6-21.489,3.527
		c-7.197,0.941-14.427,1.654-21.676,2.015C273.354,436.994,258.766,436.514,244.5,434z"/>
</g>
<circle opacity="0.2" fill="none" stroke="#A0989A" stroke-miterlimit="10" cx="530.5" cy="212.5" r="17.5"/>
<circle opacity="0.2" fill="none" stroke="#A0989A" stroke-miterlimit="10" cx="867.5" cy="365.5" r="17.5"/>
<polygon opacity="0.2" points="816.439,205.047 820.428,212.023 824.417,219 816.439,219 808.464,219 812.451,212.023 "/>
<polygon opacity="0.2" points="867.439,358.047 871.428,365.023 875.417,372 867.439,372 859.464,372 863.451,365.023 "/>
<rect x="405" y="359" opacity="0.2" width="13" height="13"/>
<rect x="341" y="206" opacity="0.2" width="13" height="13"/>
</svg>
